<svg xmlns="http://www.w3.org/2000/svg" width="234.501" height="286.939" viewBox="0 0 234.501 286.939">
  <g id="Group_17" data-name="Group 17" transform="translate(-15.119 66.748) rotate(-22)">
    <g id="Group_4" data-name="Group 4" transform="translate(0)">
      <ellipse id="Ellipse_8" data-name="Ellipse 8" cx="19.541" cy="19.541" rx="19.541" ry="19.541" transform="translate(0 71.883)" fill="#50cbf3"/>
      <ellipse id="Ellipse_9" data-name="Ellipse 9" cx="17.547" cy="16.218" rx="17.547" ry="16.218" transform="translate(11.964 200.563)" fill="#50cbf3"/>
      <ellipse id="Ellipse_12" data-name="Ellipse 12" cx="15.42" cy="9.438" rx="15.42" ry="9.438" transform="translate(21.801 227.416)" fill="#50cbf3"/>
      <ellipse id="Ellipse_13" data-name="Ellipse 13" cx="15.287" cy="9.438" rx="15.287" ry="9.438" transform="translate(140.644 223.693)" fill="#50cbf3"/>
      <ellipse id="Ellipse_10" data-name="Ellipse 10" cx="19.142" cy="17.547" rx="19.142" ry="17.547" transform="translate(127.35 195.512)" fill="#50cbf3"/>
      <path id="Path_7" data-name="Path 7" d="M5255.646,10808.869s-.6-1.78,0-8.048,2.39-17.018,2.39-17.018,25.009-24.26,20.243-50.355-13.8-37.223-13.8-37.223l-6.443-9.7s.4-5.27,2.736-8.105,6.593-3.236,6.593-3.236,7.7-3.839,6.249-9.983-6.249-5.81-6.249-5.81-6.8,2.246-9.329-3.449,1.786-9.716,2.736-16.7-2.667-13.278-9.042-19.18-14.911-13.762-34.136-5.055-10.308,40.936-10.308,40.936a66.224,66.224,0,0,0,0,19.242,71.41,71.41,0,0,0,6.481,18.594l-6.481,12.549s-5.657,18.017-14.331,18.555-21.712-2.226-32.722-1.747-26.293,6.138-26.293,6.138l-3.773-10.082-11.394,1.7,5.486,13.965s-5.832,6.476-7.134,18.935,8.5,22.851,10.522,36.123,1.289,10.228,1.289,15.616a55.1,55.1,0,0,1-1.289,10.9s5.774,23.288,11.829,2.858,8.81-15.173,16-26.813,12.772-19.752,12.772-19.752,5.08,2.919,14.247,3.514,22.421-1.133,22.421-1.133,7.529,8.055,15.62,10.445,5.35,1.39,18.655,1.39a92.142,92.142,0,0,1,1.652,13.883c0,5.483-1.652,8.048-1.652,8.048Z" transform="translate(-5100.704 -10611.133)" fill="#50cbf3"/>
    </g>
    <g id="Group_5" data-name="Group 5" transform="translate(98.206 29.694)">
      <path id="Polygon_4" data-name="Polygon 4" d="M7.844,3.8a2,2,0,0,1,3.613,0l6.487,13.656a2,2,0,0,1-1.807,2.858H3.164a2,2,0,0,1-1.807-2.858Z" transform="translate(20.317 0) rotate(90)" fill="#ffafaf"/>
      <path id="Polygon_5" data-name="Polygon 5" d="M7.844,3.8a2,2,0,0,1,3.613,0l6.487,13.656a2,2,0,0,1-1.807,2.858H3.164a2,2,0,0,1-1.807-2.858Z" transform="translate(18.286 19.301) rotate(-90)" fill="#ffafaf"/>
      <rect id="Rectangle_61" data-name="Rectangle 61" width="11.964" height="11.964" rx="4" transform="translate(13.724 3.905)" fill="#ffafaf"/>
    </g>
    <ellipse id="Ellipse_14" data-name="Ellipse 14" cx="2.792" cy="2.659" rx="2.792" ry="2.659" transform="translate(141.707 42.106)" fill="#fff"/>
  </g>
</svg>
