<svg xmlns="http://www.w3.org/2000/svg" width="832.23" height="798.39" viewBox="0 0 1664.463 1596.796">
    <g id="Group_23" data-name="Group 23" transform="translate(-72.374 -10452.192)">
        <g id="Group_7" data-name="Group 7" transform="translate(-4641.122 1548.894) rotate(-25)">
            <circle id="Ellipse_15" data-name="Ellipse 15" cx="386.5" cy="386.5" r="386.5" transform="translate(850 10838)" fill="#159fe6" />
            <circle id="Ellipse_21" data-name="Ellipse 21" cx="243.5" cy="243.5" r="243.5" transform="translate(1285 10650)" fill="#159fe6" />
            <circle id="Ellipse_16" data-name="Ellipse 16" cx="331.5" cy="331.5" r="331.5" transform="translate(905 10893)" fill="#93d0ba" />
            <circle id="Ellipse_22" data-name="Ellipse 22" cx="208.5" cy="208.5" r="208.5" transform="translate(1320 10685)" fill="#93d0ba" />
            <circle id="Ellipse_17" data-name="Ellipse 17" cx="291.5" cy="291.5" r="291.5" transform="translate(945 10933)" fill="#50cbf3" />
            <circle id="Ellipse_23" data-name="Ellipse 23" cx="183.5" cy="183.5" r="183.5" transform="translate(1345 10710)" fill="#3eb0d8" />
            <circle id="Ellipse_18" data-name="Ellipse 18" cx="248.5" cy="248.5" r="248.5" transform="translate(988 10976)" fill="#d54497" />
            <circle id="Ellipse_24" data-name="Ellipse 24" cx="156.5" cy="156.5" r="156.5" transform="translate(1372 10737)" fill="#d54497" />
            <circle id="Ellipse_19" data-name="Ellipse 19" cx="202.5" cy="202.5" r="202.5" transform="translate(1034 11022)" fill="#fce0ef" />
            <circle id="Ellipse_25" data-name="Ellipse 25" cx="127.5" cy="127.5" r="127.5" transform="translate(1401 10766)" fill="#211758" />
            <circle id="Ellipse_20" data-name="Ellipse 20" cx="134.5" cy="134.5" r="134.5" transform="translate(1102 11090)" fill="#211758" />
            <circle id="Ellipse_26" data-name="Ellipse 26" cx="84.5" cy="84.5" r="84.5" transform="translate(1444 10809)" fill="#fce0ef" />
        </g>
        <g id="Group_8" data-name="Group 8" transform="translate(-8264.796 18204.109) rotate(-120)">
            <circle id="Ellipse_15-2" data-name="Ellipse 15" cx="386.5" cy="386.5" r="386.5" transform="translate(850 10838)" fill="#159fe6" />
            <circle id="Ellipse_21-2" data-name="Ellipse 21" cx="243.5" cy="243.5" r="243.5" transform="translate(1285 10650)" fill="#159fe6" />
            <circle id="Ellipse_16-2" data-name="Ellipse 16" cx="331.5" cy="331.5" r="331.5" transform="translate(905 10893)" fill="#93d0ba" />
            <circle id="Ellipse_22-2" data-name="Ellipse 22" cx="208.5" cy="208.5" r="208.5" transform="translate(1320 10685)" fill="#93d0ba" />
            <circle id="Ellipse_17-2" data-name="Ellipse 17" cx="291.5" cy="291.5" r="291.5" transform="translate(945 10933)" fill="#50cbf3" />
            <circle id="Ellipse_23-2" data-name="Ellipse 23" cx="183.5" cy="183.5" r="183.5" transform="translate(1345 10710)" fill="#3eb0d8" />
            <circle id="Ellipse_18-2" data-name="Ellipse 18" cx="248.5" cy="248.5" r="248.5" transform="translate(988 10976)" fill="#d54497" />
            <circle id="Ellipse_24-2" data-name="Ellipse 24" cx="156.5" cy="156.5" r="156.5" transform="translate(1372 10737)" fill="#d54497" />
            <circle id="Ellipse_19-2" data-name="Ellipse 19" cx="202.5" cy="202.5" r="202.5" transform="translate(1034 11022)" fill="#fce0ef" />
            <circle id="Ellipse_25-2" data-name="Ellipse 25" cx="127.5" cy="127.5" r="127.5" transform="translate(1401 10766)" fill="#211758" />
            <circle id="Ellipse_20-2" data-name="Ellipse 20" cx="134.5" cy="134.5" r="134.5" transform="translate(1102 11090)" fill="#211758" />
            <circle id="Ellipse_26-2" data-name="Ellipse 26" cx="84.5" cy="84.5" r="84.5" transform="translate(1444 10809)" fill="#fce0ef" />
        </g>
        <g id="Group_6" data-name="Group 6" transform="translate(238 182.128)">
            <g id="Group_4" data-name="Group 4" transform="translate(91 10502.5)">
                <circle id="Ellipse_8" data-name="Ellipse 8" cx="73.5" cy="73.5" r="73.5" transform="translate(0 270.372)" />
                <ellipse id="Ellipse_9" data-name="Ellipse 9" cx="66" cy="61" rx="66" ry="61" transform="translate(45 754.372)" />
                <ellipse id="Ellipse_12" data-name="Ellipse 12" cx="58" cy="35.5" rx="58" ry="35.5" transform="translate(82 855.372)" />
                <ellipse id="Ellipse_13" data-name="Ellipse 13" cx="57.5" cy="35.5" rx="57.5" ry="35.5" transform="translate(529 841.372)" />
                <ellipse id="Ellipse_10" data-name="Ellipse 10" cx="72" cy="66" rx="72" ry="66" transform="translate(479 735.372)" />
                <path id="Path_7" data-name="Path 7" d="M5638.464,11354.874s-2.248-6.7,0-30.271,8.991-64.011,8.991-64.011,94.063-91.248,76.138-189.4-51.9-140-51.9-140l-24.233-36.47s1.518-19.821,10.291-30.485,24.8-12.173,24.8-12.173,28.977-14.442,23.5-37.551-23.5-21.854-23.5-21.854-25.564,8.446-35.088-12.971,6.716-36.545,10.291-62.817-10.034-49.946-34.008-72.144-56.084-51.76-128.393-19.009-38.771,153.97-38.771,153.97-6.094,36.8,0,72.375,24.377,69.936,24.377,69.936l-24.377,47.2s-21.279,67.768-53.9,69.788-81.663-8.368-123.076-6.569-98.9,23.088-98.9,23.088l-14.19-37.924-42.854,6.39,20.637,52.526s-21.937,24.357-26.834,71.219,31.958,85.948,39.577,135.869,4.848,38.471,4.848,58.739-4.848,40.989-4.848,40.989,21.719,87.594,44.492,10.751,33.137-57.066,60.194-100.854,48.04-74.293,48.04-74.293,19.108,10.981,53.587,13.22,84.333-4.265,84.333-4.265,28.319,30.3,58.753,39.291,20.12,5.226,70.164,5.226c0,0,6.217,31.6,6.217,52.219s-6.217,30.271-6.217,30.271Z" transform="translate(-5055.682 -10611.134)" />
            </g>
            <g id="Group_5" data-name="Group 5" transform="translate(460.381 10614.186)">
                <path id="Polygon_4" data-name="Polygon 4" d="M34.492,3.8a2,2,0,0,1,3.613,0L71.24,73.56a2,2,0,0,1-1.807,2.858H3.164A2,2,0,0,1,1.358,73.56Z" transform="translate(76.419 0) rotate(90)" fill="#ffafaf" />
                <path id="Polygon_5" data-name="Polygon 5" d="M34.492,3.8a2,2,0,0,1,3.613,0L71.24,73.56a2,2,0,0,1-1.807,2.858H3.164A2,2,0,0,1,1.358,73.56Z" transform="translate(68.777 72.598) rotate(-90)" fill="#ffafaf" />
                <rect id="Rectangle_61" data-name="Rectangle 61" width="45" height="45" rx="4" transform="translate(51.619 14.686)" fill="#ffafaf" />
            </g>
            <ellipse id="Ellipse_14" data-name="Ellipse 14" cx="10.5" cy="10" rx="10.5" ry="10" transform="translate(624 10660.872)" fill="#fff" />
        </g>
        <g id="Ellipse_33" data-name="Ellipse 33" transform="translate(664.008 11981.588) rotate(129)" fill="none" stroke="#000" stroke-width="10">
            <circle cx="40" cy="40" r="40" stroke="none" />
            <circle cx="40" cy="40" r="35" fill="none" />
        </g>
        <g id="Ellipse_34" data-name="Ellipse 34" transform="translate(537.251 11900.499) rotate(129)" fill="none" stroke="#000" stroke-width="10">
            <circle cx="20" cy="20" r="20" stroke="none" />
            <circle cx="20" cy="20" r="15" fill="none" />
        </g>
    </g>
</svg>
