<svg xmlns="http://www.w3.org/2000/svg" width="127.275" height="99.509" viewBox="0 0 127.275 99.509">
  <g id="Group_26" data-name="Group 26" transform="translate(-2048.104 -13640.091)">
    <g id="Group_24" data-name="Group 24" transform="translate(2053.231 13740.646) rotate(-93)">
      <circle id="Ellipse_15" data-name="Ellipse 15" cx="41.073" cy="41.073" r="41.073" transform="translate(0 19.979)" fill="#159fe6"/>
      <circle id="Ellipse_21" data-name="Ellipse 21" cx="25.877" cy="25.877" r="25.877" transform="translate(46.227)" fill="#159fe6"/>
      <circle id="Ellipse_16" data-name="Ellipse 16" cx="35.228" cy="35.228" r="35.228" transform="translate(5.845 25.823)" fill="#93d0ba"/>
      <circle id="Ellipse_22" data-name="Ellipse 22" cx="22.157" cy="22.157" r="22.157" transform="translate(49.947 3.719)" fill="#93d0ba"/>
      <circle id="Ellipse_17" data-name="Ellipse 17" cx="30.978" cy="30.978" r="30.978" transform="translate(10.096 30.074)" fill="#50cbf3"/>
      <circle id="Ellipse_23" data-name="Ellipse 23" cx="19.5" cy="19.5" r="19.5" transform="translate(52.603 6.376)" fill="#3eb0d8"/>
      <circle id="Ellipse_18" data-name="Ellipse 18" cx="26.408" cy="26.408" r="26.408" transform="translate(14.665 34.644)" fill="#d54497"/>
      <circle id="Ellipse_24" data-name="Ellipse 24" cx="16.631" cy="16.631" r="16.631" transform="translate(55.473 9.245)" fill="#d54497"/>
      <circle id="Ellipse_19" data-name="Ellipse 19" cx="21.52" cy="21.52" r="21.52" transform="translate(19.554 39.532)" fill="#fce0ef"/>
      <circle id="Ellipse_25" data-name="Ellipse 25" cx="13.549" cy="13.549" r="13.549" transform="translate(58.554 12.327)" fill="#211758"/>
      <circle id="Ellipse_20" data-name="Ellipse 20" cx="14.293" cy="14.293" r="14.293" transform="translate(26.78 46.759)" fill="#211758"/>
      <circle id="Ellipse_26" data-name="Ellipse 26" cx="8.98" cy="8.98" r="8.98" transform="translate(63.124 16.897)" fill="#fce0ef"/>
    </g>
    <g id="Group_25" data-name="Group 25" transform="matrix(0.966, 0.259, -0.259, 0.966, 2125.908, 13638.48)">
      <circle id="Ellipse_15-2" data-name="Ellipse 15" cx="21.47" cy="21.47" r="21.47" transform="translate(0 10.443)" fill="#159fe6"/>
      <circle id="Ellipse_21-2" data-name="Ellipse 21" cx="13.526" cy="13.526" r="13.526" transform="translate(24.164)" fill="#159fe6"/>
      <circle id="Ellipse_16-2" data-name="Ellipse 16" cx="18.414" cy="18.414" r="18.414" transform="translate(3.055 13.498)" fill="#93d0ba"/>
      <circle id="Ellipse_22-2" data-name="Ellipse 22" cx="11.582" cy="11.582" r="11.582" transform="translate(26.108 1.944)" fill="#93d0ba"/>
      <circle id="Ellipse_17-2" data-name="Ellipse 17" cx="16.192" cy="16.192" r="16.192" transform="translate(5.277 15.72)" fill="#50cbf3"/>
      <circle id="Ellipse_23-2" data-name="Ellipse 23" cx="10.193" cy="10.193" r="10.193" transform="translate(27.497 3.333)" fill="#3eb0d8"/>
      <circle id="Ellipse_18-2" data-name="Ellipse 18" cx="13.804" cy="13.804" r="13.804" transform="translate(7.666 18.109)" fill="#d54497"/>
      <circle id="Ellipse_24-2" data-name="Ellipse 24" cx="8.693" cy="8.693" r="8.693" transform="translate(28.996 4.833)" fill="#d54497"/>
      <circle id="Ellipse_19-2" data-name="Ellipse 19" cx="11.249" cy="11.249" r="11.249" transform="translate(10.221 20.664)" fill="#fce0ef"/>
      <circle id="Ellipse_25-2" data-name="Ellipse 25" cx="7.082" cy="7.082" r="7.082" transform="translate(30.607 6.444)" fill="#211758"/>
      <circle id="Ellipse_20-2" data-name="Ellipse 20" cx="7.471" cy="7.471" r="7.471" transform="translate(13.998 24.441)" fill="#211758"/>
      <circle id="Ellipse_26-2" data-name="Ellipse 26" cx="4.694" cy="4.694" r="4.694" transform="translate(32.996 8.832)" fill="#fce0ef"/>
    </g>
  </g>
</svg>
